<?xml version="1.0" standalone="no"?>
<!DOCTYPE svg PUBLIC "-//W3C//DTD SVG 1.0//EN" "http://www.w3.org/TR/2001/REC-SVG-20010904/DTD/svg10.dtd">
<svg xmlns="http://www.w3.org/2000/svg" xmlns:xlink="http://www.w3.org/1999/xlink" id="body_1" width="667" height="667">

<defs>
    <clipPath  id="1">

    <path id=""  clip-rule="evenodd" transform="matrix(1 0 0 1 0 0)"  d="M0 500L0 0L0 0L500 0L500 0L500 500L500 500L0 500z" />    </clipPath>
</defs>

<g transform="matrix(1.3333 0 0 1.3333 0 0)">
	<g clip-path="url(#1)" >
    <path id=""  transform="matrix(1 0 0 -1 0 500)"  d="M427.30722 278.44623L427.30722 278.44623L427.30722 278.44623L327.43082 205.89828L327.43082 205.89828L365.5158 88.617035L365.5158 88.617035L365.5158 88.617035C 366.52728 85.50467 365.98724 82.09613 364.0632 79.44885L364.0632 79.44885L364.0632 79.44885C 362.13913 76.801575 359.06372 75.23572 355.7911 75.23703L355.7911 75.23703L355.7911 75.23703C 353.64572 75.24838 351.56036 75.9462 349.84018 77.22824L349.84018 77.22824L250.06392 149.70169L250.06392 149.70169L150.28674 77.22824L150.28674 77.22824L150.28674 77.22824C 148.56657 75.9462 146.48117 75.24838 144.3358 75.23703L144.3358 75.23703L144.3358 75.23703C 141.06331 75.23602 137.98816 76.80197 136.06418 79.44913L136.06418 79.44913L136.06418 79.44913C 134.14018 82.09631 133.59999 85.50467 134.61111 88.617035L134.61111 88.617035L172.69612 205.89828L172.69612 205.89828L72.819695 278.44623L72.819695 278.44623L72.819695 278.44623C 69.24866 281.0398 67.753975 285.63794 69.11748 289.83548L69.11748 289.83548L69.11748 289.83548C 70.48098 294.03308 74.39248 296.8751 78.80594 296.875L78.80594 296.875L78.80594 296.875L78.80594 296.875L202.23999 296.875L202.23999 296.875L240.37502 414.30655L240.37502 414.30655L240.37502 414.30655C 241.73883 418.50406 245.6504 421.346 250.0639 421.346L250.0639 421.346L250.0639 421.346C 254.4774 421.346 258.38898 418.50406 259.7528 414.30655L259.7528 414.30655L297.8869 296.875L297.8869 296.875L297.8869 296.875L297.8869 296.875L421.32095 296.875L421.32095 296.875L421.32095 296.875C 425.73383 296.87384 429.6442 294.0318 431.00748 289.83484L431.00748 289.83484L431.00748 289.83484C 432.3708 285.6379 430.877 281.0404 427.30722 278.44623" stroke="#FFFFFF" stroke-width="20.833334" fill="#EEC407" fill-rule="nonzero" />
	</g>
</g>
</svg>